<svg width="275" height="284" fill="none" xmlns="http://www.w3.org/2000/svg"><path opacity=".02" d="M124.309.8v8c-8.533.267-15.066 1.333-19.6 3.2-4.266 1.6-7.066 4.8-8.4 9.6-1.333 4.533-2 11.733-2 21.6v198.4c0 9.6.667 16.8 2 21.6 1.6 4.8 4.534 8 8.8 9.6 4.267 1.6 10.667 2.667 19.2 3.2v8c-7.2-.533-16.266-.8-27.2-.8-10.933-.267-22-.4-33.2-.4-13.066 0-25.2.133-36.4.4-10.933 0-19.866.267-26.8.8v-8c8.534-.533 14.934-1.6 19.2-3.2 4.267-1.6 7.067-4.8 8.4-9.6 1.6-4.8 2.4-12 2.4-21.6V43.2c0-9.867-.8-17.067-2.4-21.6-1.333-4.8-4.266-8-8.8-9.6C15.243 10.133 8.976 9.067.71 8.8v-8c6.934.267 15.867.533 26.8.8 11.2.267 23.334.4 36.4.4 11.2 0 22.267-.133 33.2-.4 10.934-.267 20-.533 27.2-.8zM274.7.8v8c-8.533.267-15.067 1.333-19.6 3.2-4.267 1.6-7.067 4.8-8.4 9.6-1.333 4.533-2 11.733-2 21.6v198.4c0 9.6.667 16.8 2 21.6 1.6 4.8 4.533 8 8.8 9.6 4.267 1.6 10.667 2.667 19.2 3.2v8c-7.2-.533-16.267-.8-27.2-.8-10.933-.267-22-.4-33.2-.4-13.067 0-25.2.133-36.4.4-10.933 0-19.867.267-26.8.8v-8c8.533-.533 14.933-1.6 19.2-3.2 4.267-1.6 7.067-4.8 8.4-9.6 1.6-4.8 2.4-12 2.4-21.6V43.2c0-9.867-.8-17.067-2.4-21.6-1.333-4.8-4.267-8-8.8-9.6-4.267-1.867-10.533-2.933-18.8-3.2v-8c6.933.267 15.867.533 26.8.8 11.2.267 23.333.4 36.4.4 11.2 0 22.267-.133 33.2-.4 10.933-.267 20-.533 27.2-.8z" fill="#fff"/></svg>